<svg xmlns="http://www.w3.org/2000/svg" width="755.932" height="761.914" viewBox="0 0 755.932 761.914">
  <g id="Layer_2" data-name="Layer 2" transform="translate(0.003)" opacity="0.05">
    <path id="_5679_-_Unstructured_Data" data-name="5679 - Unstructured Data" d="M109.038,218.073A14.816,14.816,0,0,1,98.475,213.7l-94.1-94.116a14.92,14.92,0,0,1,0-21.112l94.1-94.1a14.92,14.92,0,0,1,21.1,0l94.131,94.1a14.92,14.92,0,0,1,0,21.1L119.587,213.7A14.816,14.816,0,0,1,109.038,218.073ZM36.019,109.037l73.019,72.99,72.99-72.99-72.99-73.019ZM381.63,162.943h-133.1a14.92,14.92,0,0,1-14.92-14.92V14.92A14.92,14.92,0,0,1,248.527,0h133.1a14.92,14.92,0,0,1,14.92,14.92v133.1a14.92,14.92,0,0,1-14.92,14.92ZM263.447,133.1H366.71V29.84H263.447Zm251.375,29.84h-.179a81.479,81.479,0,0,1-81.389-81.375V81.39A81.479,81.479,0,0,1,514.643,0h.179a81.479,81.479,0,0,1,81.39,81.39v.179a81.479,81.479,0,0,1-81.39,81.375Zm-.179-133.1A51.609,51.609,0,0,0,463.094,81.39v.179A51.609,51.609,0,0,0,514.643,133.1h.179a51.609,51.609,0,0,0,51.549-51.534V81.39A51.609,51.609,0,0,0,514.822,29.84ZM235.308,362.56h-.179a81.479,81.479,0,0,1-81.449-81.345v-.179a81.479,81.479,0,0,1,81.39-81.375h.179a81.479,81.479,0,0,1,81.375,81.375v.179A81.479,81.479,0,0,1,235.308,362.56Zm-.179-133.1a51.594,51.594,0,0,0-51.609,51.579v.179a51.609,51.609,0,0,0,51.609,51.5h.179a51.609,51.609,0,0,0,51.534-51.549v-.179a51.594,51.594,0,0,0-51.534-51.534Zm266.3,133.1h-133.1a14.92,14.92,0,0,1-14.92-14.92V214.582a14.92,14.92,0,0,1,14.92-14.92h133.1a14.92,14.92,0,0,1,14.92,14.92V347.64A14.92,14.92,0,0,1,501.424,362.56ZM383.241,332.72H486.5V229.5H383.241ZM646.9,390.163a14.918,14.918,0,0,1-10.546-4.369l-94.134-94.119a14.92,14.92,0,0,1,0-21.1l94.131-94.116a14.92,14.92,0,0,1,21.1,0l94.117,94.116a14.92,14.92,0,0,1,0,21.1l-94.117,94.116A14.92,14.92,0,0,1,646.9,390.163ZM573.876,281.126,646.9,354.145l73.019-73.019L646.9,208.107ZM182.028,562.252H48.865a14.92,14.92,0,0,1-14.92-14.92v-133.1a14.92,14.92,0,0,1,14.92-14.92H182.028a14.92,14.92,0,0,1,14.92,14.92v133.1a14.92,14.92,0,0,1-14.92,14.92ZM63.845,532.412H167.107V429.149H63.785Zm317.785,29.84h-133.1a14.92,14.92,0,0,1-14.92-14.92v-133.1a14.92,14.92,0,0,1,14.92-14.92h133.1a14.92,14.92,0,0,1,14.92,14.92v133.1a14.92,14.92,0,0,1-14.92,14.92Zm-118.183-29.84H366.71V429.149H263.447Zm251.375,29.84h-.179a81.479,81.479,0,0,1-81.389-81.375V480.7a81.479,81.479,0,0,1,81.389-81.39h.179a81.479,81.479,0,0,1,81.39,81.39v.179a81.479,81.479,0,0,1-81.39,81.375Zm-.179-133.1A51.609,51.609,0,0,0,463.094,480.7v.179a51.594,51.594,0,0,0,51.549,51.534h.179a51.594,51.594,0,0,0,51.549-51.534V480.7a51.609,51.609,0,0,0-51.549-51.549ZM235.308,761.914h-.179a81.479,81.479,0,0,1-81.449-81.39v-.164a81.479,81.479,0,0,1,81.39-81.375h.179a81.479,81.479,0,0,1,81.434,81.375v.179a81.479,81.479,0,0,1-81.375,81.375Zm-.179-133.1A51.609,51.609,0,0,0,183.52,680.36v.179a51.609,51.609,0,0,0,51.549,51.549h.179a51.609,51.609,0,0,0,51.534-51.549v-.179a51.609,51.609,0,0,0-51.534-51.534Zm266.3,133.1h-133.1a14.92,14.92,0,0,1-14.92-14.92v-133.1a14.92,14.92,0,0,1,14.92-14.92h133.1a14.92,14.92,0,0,1,14.92,14.92v133.1a14.92,14.92,0,0,1-14.92,14.92Zm-118.183-29.84H486.5V628.811H383.241ZM646.9,761.914a14.918,14.918,0,0,1-10.546-4.369l-94.134-94.119a14.92,14.92,0,0,1,0-21.1l94.131-94.117a14.92,14.92,0,0,1,21.1,0l94.117,94.117a14.92,14.92,0,0,1,0,21.1l-94.117,94.117a14.92,14.92,0,0,1-10.549,4.372ZM573.876,652.877,646.9,725.9l73.019-73.019L646.9,579.858Z" transform="translate(0 0)" fill="#1dbbfb"/>
  </g>
</svg>
